<svg xmlns="http://www.w3.org/2000/svg" viewBox="0 0 64 64" width="64" height="64">
  <defs>
    <linearGradient id="fw-fire" x1="18" y1="10" x2="46" y2="54" gradientUnits="userSpaceOnUse">
      <stop offset="0" stop-color="#ffb020"/>
      <stop offset="0.55" stop-color="#ff5a36"/>
      <stop offset="1" stop-color="#e01e37"/>
    </linearGradient>
  </defs>
  <rect width="64" height="64" rx="15" fill="#0a0c10"/>
  <rect x="0.75" y="0.75" width="62.5" height="62.5" rx="14.25" fill="none" stroke="#ffffff" stroke-opacity="0.08"/>
  <circle cx="32" cy="32" r="21" fill="none" stroke="#ffffff" stroke-opacity="0.13" stroke-width="2.5"/>
  <path d="M 32 11 A 21 21 0 0 1 50.19 42.5" fill="none" stroke="url(#fw-fire)" stroke-width="2.5" stroke-linecap="round"/>
  <circle cx="50.19" cy="42.5" r="3" fill="#ffb020"/>
  <path transform="translate(18.2 18.2) scale(1.15)" fill="url(#fw-fire)" fill-rule="evenodd" clip-rule="evenodd" d="M12.963 2.286a.75.75 0 0 0-1.071-.136 9.742 9.742 0 0 0-3.539 6.176 7.547 7.547 0 0 1-1.705-1.715.75.75 0 0 0-1.152-.082A9 9 0 1 0 15.68 4.534a7.46 7.46 0 0 1-2.717-2.248ZM15.75 14.25a3.75 3.75 0 1 1-7.313-1.172c.628.465 1.35.81 2.133 1a5.99 5.99 0 0 1 1.925-3.547 3.75 3.75 0 0 1 3.255 3.718Z"/>
</svg>
